# xmcd
#
# Track frame offsets:
#	150
#	11915
#	22510
#	34956
#	45127
#	55962
#	65830
#	76356
#	87171
#	96066
#	110093
#	120601
#
# Disc length: 1739 seconds
#
# Revision: 0
# Processed by: cddbd v1.4PL0 Copyright (c) Steve Scherf et al.
# Submitted via: audiograbber 1.80.04
#
DISCID=9106c90c
DTITLE=50's Vol.1 - Colección inolvidables de cuatro decadas
DYEAR=2002
DGENRE=Top 40
TTITLE0=The Platters - The great pretenders
TTITLE1=Frankie Avalon - Venus
TTITLE2=Brenda Lee - Jambalaya
TTITLE3=Pat Bone - Love letters in the sand
TTITLE4=Paul Anka - Crazy Love
TTITLE5=Connie Francis - Stupid cupid
TTITLE6=Neil Sedaka - One way ticket
TTITLE7=The chordettes - Mr. Sandman
TTITLE8=The Evely Brothers - Wake little Susie
TTITLE9=Bovvy Darin - Mack the knife
TTITLE10=Fast Domino - Blueberry hill
TTITLE11=Rick Nelson - Lonesome town
EXTD=PKdor
EXTT0=
EXTT1=
EXTT2=
EXTT3=
EXTT4=
EXTT5=
EXTT6=
EXTT7=
EXTT8=
EXTT9=
EXTT10=
EXTT11=
PLAYORDER=
